<svg width="158px" height="154px" viewBox="0 0 158 154" version="1.1" xmlns="http://www.w3.org/2000/svg" xmlns:xlink="http://www.w3.org/1999/xlink">
  <!-- Generator: Sketch 51.3 (57544) - http://www.bohemiancoding.com/sketch -->
  <desc>Created with Sketch.</desc>
  <defs></defs>
  <g id="Page-1" stroke="none" stroke-width="1" fill="none" fill-rule="evenodd">
    <g id="logo" fill-rule="nonzero">
      <path d="M93.203,1.194 C92.817,1.576 85.975,2.163 78,2.498 C63.24,3.119 36.722,5.623 34,6.653 C33.175,6.965 29.575,7.402 26,7.624 C17.441,8.156 5.278,10.946 2.889,12.924 C1.201,14.322 1.117,14.951 2.147,18.5 C3.733,23.966 3.761,57.525 2.197,78 C1.504,87.075 0.663,100.425 0.33,107.666 C-0.247,120.183 -0.169,120.969 1.915,123.62 C3.121,125.153 6.671,127.706 9.804,129.295 C12.937,130.883 16.85,133.443 18.5,134.985 C24.363,140.463 41.442,151.298 46.189,152.55 C50.225,153.615 51.719,153.571 55.737,152.274 C58.357,151.428 65.675,150.175 72,149.489 C82.682,148.329 88.984,147.393 103,144.881 C106.025,144.339 111.425,143.469 115,142.947 C118.575,142.426 124.2,141.487 127.5,140.862 C130.8,140.237 137.242,139.408 141.815,139.02 C153.532,138.026 153.919,137.502 152.901,124 C152.157,114.131 152.283,107.24 153.513,90.5 C153.796,86.65 154.22,78.411 154.455,72.191 C154.69,65.971 155.419,58.321 156.074,55.191 C156.729,52.061 157.318,43.2 157.383,35.5 L157.5,21.5 L153.753,21.19 C151.398,20.995 149.648,20.21 149.041,19.077 C147.95,17.038 145.575,15.992 135.29,13.022 C131.325,11.876 127.811,10.503 127.481,9.97 C127.152,9.436 125.779,9 124.431,9 C123.083,9 121.21,8.1 120.268,7 C119.326,5.9 117.981,5 117.278,5 C116.575,5 116,4.539 116,3.975 C116,1.986 110.403,0.595 102.203,0.548 C97.64,0.522 93.59,0.812 93.203,1.194" id="Shape" fill="#000000"></path>
      <path d="M100,9.053 C93.095,10.285 74.421,12.188 65.5,12.568 C51.674,13.158 42.774,13.867 34.217,15.061 C29.661,15.696 25.078,15.992 24.032,15.719 C21.559,15.072 17.921,17.629 18.641,19.508 C18.948,20.307 20.617,21.397 22.349,21.931 C27.763,23.597 42.342,28.996 45.892,30.649 C47.757,31.518 50.907,32.442 52.892,32.702 C56.691,33.201 70.385,31.755 78,30.05 C80.475,29.497 84.975,28.782 88,28.463 C91.025,28.144 95.66,27.459 98.299,26.941 C100.939,26.424 105.442,26 108.306,26 C111.17,26 115.085,25.546 117.007,24.992 C118.928,24.437 123.875,23.795 128,23.563 C132.125,23.332 136.285,22.839 137.244,22.467 C139.512,21.588 138.507,20 135.683,20 C134.474,20 131.463,18.936 128.992,17.636 C126.521,16.336 122.7,14.716 120.5,14.035 C118.3,13.354 114.274,11.718 111.554,10.399 C108.833,9.079 106.133,8.056 105.554,8.125 C104.974,8.194 102.475,8.612 100,9.053" id="Shape-path" fill="#FFFFFF"></path>
      <path d="M12.5,18 C12.84,18.55 13.541,19 14.059,19 C14.577,19 15,18.55 15,18 C15,17.45 14.298,17 13.441,17 C12.584,17 12.16,17.45 12.5,18" id="Shape-path" fill="#FFFFFF"></path>
      <path d="M134.5,32.101 C130.566,33.32 120.142,35.077 117.109,35.034 C115.793,35.015 113.057,35.446 111.028,35.992 C108.999,36.539 103.325,37.228 98.419,37.524 C93.514,37.819 87.025,38.209 84,38.389 C65.534,39.49 56.305,40.341 54.9,41.075 C53.562,41.773 53.189,44.908 52.623,60.205 C52.25,70.267 51.771,80.975 51.557,84 C49.634,111.201 50.075,140.431 52.421,141.331 C53.759,141.845 75.432,139.469 76.729,138.667 C77.214,138.368 79.351,138.515 81.478,138.995 C84.058,139.577 87.867,139.406 92.923,138.482 C97.09,137.72 105.9,136.162 112.5,135.019 C131.379,131.75 139.047,129.78 140.029,127.946 C140.516,127.036 141.162,121.163 141.465,114.896 C141.767,108.628 142.455,101.475 142.994,99 C144.651,91.38 146.855,71.134 147.459,58 C148.703,30.911 148.801,32.675 146,31.895 C142.515,30.925 138.038,31.005 134.5,32.101" id="Shape-path" fill="#FFFFFF"></path>
      <path d="M94.5,53.082 C92.85,53.604 90.375,53.955 89,53.862 C85.49,53.625 79,55.055 79,56.066 C79,56.53 77.859,58.051 76.463,59.446 C74.152,61.757 74.047,62.211 75.275,64.555 C76.016,65.97 77.72,67.678 79.061,68.351 C81.813,69.731 81.947,71.513 80.61,89 C79.06,109.271 78.316,113.783 76.042,116.673 L73.85,119.46 L76.064,121.253 C77.282,122.239 79.015,122.813 79.915,122.527 C80.814,122.242 84.217,121.761 87.476,121.46 C90.735,121.158 93.986,120.426 94.701,119.833 C96.235,118.56 96.432,114.385 95,113.5 C94.45,113.16 94,109.116 94,104.514 C94,96.664 94.163,96.017 96.635,94.073 C98.084,92.933 99.987,92 100.864,92 C101.74,92 105.392,90.877 108.979,89.505 C114.08,87.553 116.462,85.892 119.917,81.876 C123.62,77.572 124.328,76.076 124.3,72.621 C124.227,63.53 116.719,55.636 106.541,53.95 C104.318,53.582 101.375,53.022 100,52.706 C98.625,52.39 96.15,52.559 94.5,53.082" id="Shape-path" fill="#000000"></path>
      <path d="M94.889,62.082 C92.421,63.02 92.248,63.544 91.746,71.59 C91.012,83.347 91.162,83.684 97.723,85.046 C102.754,86.091 103.623,85.994 107.601,83.948 C115.813,79.724 117.945,71.813 112.167,67.009 C107.162,62.848 98.999,60.52 94.889,62.082" id="Shape-path" fill="#FFFFFF"></path>
      <path d="M37.2,80.2 C36.54,80.86 36,82.055 36,82.855 C36,84.01 36.412,83.937 38,82.5 C40.054,80.641 40.617,79 39.2,79 C38.76,79 37.86,79.54 37.2,80.2" id="Shape-path" fill="#FFFFFF"></path>
    </g>
  </g>
</svg>